<svg width="120" height="54" viewBox="0 0 120 54" fill="none" xmlns="http://www.w3.org/2000/svg">
<g clip-path="url(#clip0_49_2031)">
<mask id="mask0_49_2031" style="mask-type:luminance" maskUnits="userSpaceOnUse" x="0" y="0" width="120" height="54">
<path d="M120 0H0V53.3393H120V0Z" fill="white"/>
</mask>
<g mask="url(#mask0_49_2031)">
<path d="M84.8807 26.7075C84.4188 26.5893 83.9903 26.3665 83.6282 26.0565C83.2717 25.7226 82.956 25.3478 82.6877 24.9397L80.6484 22.128C80.4948 22.1956 80.3276 22.2268 80.1599 22.2191C79.9922 22.2115 79.8285 22.1651 79.6817 22.0837C79.4345 22.0011 79.1981 21.8893 78.9774 21.7507C78.7563 21.6119 78.5938 21.3968 78.5207 21.1462C78.1575 21.2279 77.7804 21.2255 77.4183 21.1391C77.0561 21.0528 76.7185 20.8849 76.4312 20.6482C76.3884 20.8209 76.307 20.9817 76.1932 21.1184C76.0794 21.2552 75.9362 21.3644 75.7742 21.438C75.5006 21.4864 75.2187 21.4396 74.9754 21.3052C74.7654 21.2264 74.5671 21.1194 74.3859 20.9872C74.2824 20.9047 74.1947 20.8042 74.0912 20.7157C73.9412 20.586 73.7732 20.4907 73.6194 20.3707C73.3053 20.0944 73.0394 19.7677 72.8327 19.404C72.4949 18.8522 72.2333 18.2573 72.0549 17.6355C71.9879 17.4925 71.9531 17.3366 71.9531 17.1787C71.9531 17.0209 71.9879 16.8649 72.0549 16.722C72.1697 16.597 72.313 16.5017 72.4726 16.4443C72.6322 16.3868 72.8034 16.3689 72.9714 16.392C72.9714 16.2915 72.8567 16.209 72.8004 16.1265C72.6944 15.9368 72.6348 15.7248 72.6264 15.5077L72.5559 14.9182C72.5354 14.8122 72.5354 14.7032 72.5559 14.5972C72.5772 14.5289 72.6091 14.4644 72.6504 14.406C72.8717 14.1372 73.1705 13.9432 73.506 13.8504C73.8415 13.7575 74.1975 13.7703 74.5254 13.887C74.3654 13.7177 74.2553 13.5075 74.2074 13.2795C74.0956 12.8736 74.0743 12.448 74.1452 12.033C74.1663 11.9298 74.203 11.8304 74.2539 11.7382C74.3543 11.5882 74.4775 11.4548 74.6192 11.343C74.6847 11.2802 74.7593 11.2276 74.8404 11.187C74.9342 11.1489 75.034 11.1278 75.1352 11.1247C75.2709 11.1247 75.4067 11.1097 75.5387 11.1097C75.6377 11.1037 75.7371 11.1125 75.8334 11.136C75.9482 11.1808 76.0587 11.2361 76.1634 11.301C76.2767 11.357 76.3929 11.4071 76.5114 11.451C76.8468 11.5916 77.1605 11.7792 77.4429 12.0082C77.5609 12.0941 77.661 12.2021 77.7377 12.3262C77.6025 12.1503 77.5161 11.9418 77.4872 11.7217C77.411 11.4166 77.351 11.1077 77.3072 10.7962C77.2597 10.5219 77.2488 10.2424 77.2749 9.96523C77.3011 9.68676 77.4088 9.4222 77.5847 9.20473C77.632 9.14331 77.6939 9.09461 77.7647 9.06298C77.8423 9.03657 77.9247 9.02761 78.0062 9.03673C78.2347 9.03388 78.4623 9.06575 78.6812 9.13123C78.9724 9.24894 79.2349 9.428 79.4507 9.65623C79.6719 9.86248 79.8812 10.0807 80.0904 10.302C80.1699 10.3875 80.2494 10.47 80.3259 10.5585C80.4024 10.647 80.5412 10.827 80.6387 10.965C80.9836 11.4568 81.2891 11.9752 81.5522 12.5152C81.7954 12.174 82.0655 11.8527 82.3599 11.5545C82.5308 11.3942 82.6931 11.225 82.8459 11.0475C82.9546 10.9103 83.053 10.7654 83.1407 10.614C83.4295 10.1112 83.6836 9.58919 83.9012 9.05173C83.9012 9.01348 83.9454 8.98423 83.9604 8.94598C84.159 8.51001 84.4518 8.12349 84.8177 7.81423C84.9689 7.67453 85.1325 7.549 85.3067 7.43923C85.5582 7.29492 85.8252 7.17921 86.1024 7.09423C86.2874 7.02862 86.4763 6.97452 86.6679 6.93223C86.9061 6.88568 87.1476 6.85809 87.3902 6.84973C87.4967 6.83509 87.6047 6.83509 87.7112 6.84973L88.0862 6.93823C88.1958 6.96286 88.3039 6.99341 88.4102 7.02973C88.6601 7.13595 88.8927 7.27904 89.1002 7.45423C89.2519 7.55655 89.3798 7.69033 89.4752 7.84648C89.5744 8.04736 89.5914 8.27904 89.5224 8.49223C89.4527 8.70622 89.345 8.9059 89.2044 9.08173C89.0008 9.35345 88.7685 9.6024 88.5114 9.82423C88.2579 10.0455 87.9602 10.2547 87.6864 10.455C87.5974 10.518 87.5127 10.5869 87.4329 10.6612C87.359 10.7363 87.291 10.817 87.2297 10.9027C86.6798 11.5548 86.3208 12.3462 86.1924 13.1895C86.1924 13.281 86.1714 13.3725 86.1632 13.4632C86.1136 13.9893 86.033 14.5119 85.9217 15.0285C85.8595 15.2486 85.7777 15.4627 85.6772 15.6682C85.6198 15.8493 85.5186 16.0134 85.3824 16.146C85.3502 16.1692 85.3074 16.1992 85.3074 16.2405C85.308 16.2739 85.3218 16.3057 85.3457 16.329C85.6313 16.6909 85.8281 17.1147 85.9202 17.5665C85.9481 17.646 85.9546 17.7314 85.939 17.8142C85.9235 17.897 85.8865 17.9742 85.8317 18.0382C85.8089 18.0563 85.7923 18.0811 85.7844 18.1091C85.7765 18.1371 85.7775 18.1669 85.7874 18.1942C85.8086 18.2586 85.8512 18.3136 85.9082 18.3502C86.7187 19.083 87.6881 19.6177 88.7402 19.9125C88.9896 19.9629 89.2414 20.0002 89.4947 20.0242C90.3789 20.1247 91.2632 20.1862 92.1707 20.2492C92.3207 19.9957 92.4654 19.7242 92.6334 19.4797C92.6692 19.4246 92.7118 19.3742 92.7602 19.3297C92.942 19.2076 93.1614 19.1544 93.3789 19.1797C92.9391 17.8359 92.7582 16.4209 92.8457 15.0097C92.8368 14.7846 92.8429 14.5591 92.8637 14.3347C92.9968 13.6151 93.3159 12.9429 93.7892 12.3847C94.1839 11.794 94.7212 11.3124 95.3514 10.9845C95.2992 10.7848 95.2954 10.5754 95.3406 10.374C95.3857 10.1725 95.4784 9.98479 95.6109 9.82648C95.639 9.78814 95.6758 9.75715 95.7184 9.73613C95.7609 9.7151 95.808 9.70467 95.8554 9.70573C95.9021 9.7185 95.9457 9.74047 95.9837 9.77036C96.0217 9.80024 96.0533 9.83743 96.0767 9.87973L96.2799 10.1745C96.3961 9.96203 96.5484 9.77143 96.7299 9.61123C96.8477 9.50248 96.9804 9.41098 97.0982 9.31648C97.2524 9.1688 97.3925 9.0071 97.5167 8.83348L97.8729 8.37373C97.9801 8.2407 98.0785 8.10091 98.1677 7.95523C98.5669 7.21573 98.7802 6.39027 98.7894 5.54998C98.5804 5.23098 98.4232 4.88089 98.3237 4.51273C98.2695 4.32823 98.2442 4.13646 98.2487 3.94422C98.2782 3.67848 98.3748 3.42461 98.5295 3.20654C98.6842 2.98846 98.8919 2.81336 99.1329 2.69772C99.6181 2.47319 100.154 2.37959 100.686 2.42623C101.321 2.42969 101.942 2.61472 102.475 2.95947C103.62 3.63443 104.718 4.38615 105.761 5.20948C106.625 6.03448 107.444 6.90418 108.216 7.81498C108.917 8.60173 109.637 9.37123 110.409 10.0905C111.408 11.019 111.459 12.5895 111.834 13.9012C111.91 14.1364 111.968 14.3768 112.008 14.6205C112.087 15.282 111.961 15.9519 111.646 16.539C111.257 17.289 111.608 18.216 111.631 19.059C111.703 19.9003 111.564 20.7464 111.224 21.5197C111.107 21.7358 110.976 21.9445 110.832 22.1445L110.649 22.413C110.154 23.1322 110.909 23.838 111.38 24.5707C111.861 25.3132 112.3 26.0816 112.695 26.8725C113.158 27.7422 113.506 28.6685 113.729 29.628C113.85 30.2833 113.927 30.9461 113.96 31.6117C114.163 33.8306 114.24 36.0592 114.19 38.2867C114.137 39.2738 113.919 40.2451 113.544 41.16C113.303 41.7317 112.992 42.2713 112.619 42.7665C112.177 43.4092 111.734 44.0542 111.236 44.6557C110.09 46.0413 108.675 47.181 107.078 48.0067C104.649 46.4857 101.808 46.0882 98.9642 45.723C98.3079 45.651 97.6557 45.5449 97.0104 45.405C95.9878 45.1306 94.9916 44.7657 94.0337 44.3145L91.7642 43.3245C87.1989 41.3325 85.5392 35.4495 83.8067 30.7777C83.4447 30.0625 83.378 29.2339 83.6207 28.47C83.9492 27.7537 84.6744 27.4327 84.8807 26.7075Z" fill="white"/>
<path d="M10.4393 26.9085H9.72302V26.4337C9.5079 26.605 9.27478 26.7524 9.02777 26.8732C8.79493 26.9758 8.54269 27.027 8.28827 27.0232C8.09386 27.0343 7.89936 27.0031 7.71812 26.9319C7.53688 26.8607 7.37319 26.7511 7.23827 26.6107C6.96702 26.2688 6.83328 25.8379 6.86327 25.4025V22.626H7.58552V25.0635C7.58353 25.2497 7.5933 25.4358 7.61477 25.6207C7.63145 25.7607 7.67554 25.896 7.74452 26.019C7.80606 26.1267 7.90002 26.2123 8.01302 26.2635C8.16615 26.3222 8.33002 26.3478 8.49377 26.3385C8.70492 26.3335 8.91267 26.2842 9.10352 26.1937C9.32509 26.0959 9.53307 25.9699 9.72227 25.8187V22.626H10.4385L10.4393 26.9085Z" fill="#231F20"/>
<path d="M18.102 26.9085H17.3903V24.468C17.3943 24.2909 17.3865 24.1138 17.367 23.9377C17.3555 23.7962 17.3198 23.6577 17.2613 23.5282C17.2047 23.4206 17.1161 23.3331 17.0078 23.2777C16.8577 23.2152 16.6955 23.187 16.533 23.1952C16.3216 23.1973 16.1136 23.2486 15.9255 23.3452C15.7183 23.4556 15.521 23.5838 15.336 23.7285C15.3335 23.7979 15.3405 23.8673 15.357 23.9347C15.3673 24.0119 15.3673 24.0901 15.357 24.1672V26.9085H14.6288V24.468C14.6333 24.2888 14.6246 24.1096 14.6025 23.9317C14.5939 23.7897 14.558 23.6507 14.4968 23.5222C14.4405 23.4161 14.3531 23.3298 14.2463 23.2747C14.0955 23.2146 13.9337 23.1875 13.7715 23.1952C13.5667 23.1988 13.3653 23.2483 13.182 23.34C12.9735 23.445 12.776 23.5706 12.5925 23.715V26.91H11.8628V22.6267H12.582V23.1045C12.7881 22.9308 13.0148 22.7831 13.257 22.665C13.4823 22.5605 13.728 22.5072 13.9763 22.509C14.2363 22.5008 14.4934 22.5652 14.7188 22.695C14.9119 22.8176 15.0639 22.9952 15.1553 23.205C15.3968 22.9927 15.6654 22.8134 15.954 22.6717C16.1957 22.5624 16.4583 22.5071 16.7235 22.5097C16.9184 22.494 17.1141 22.5245 17.2949 22.5988C17.4757 22.6731 17.6363 22.7891 17.7638 22.9372C18.0098 23.2871 18.1293 23.7103 18.1028 24.1372V26.9122" fill="#231F20"/>
<path d="M22.11 25.8562V24.6772C21.8887 24.6772 21.6292 24.7095 21.3322 24.7365C21.0946 24.7504 20.8588 24.7868 20.628 24.8452C20.4397 24.8951 20.266 24.9889 20.121 25.119C19.9925 25.2664 19.9255 25.4574 19.9337 25.6528C19.9419 25.8482 20.0248 26.0329 20.1652 26.169C20.3621 26.3069 20.6005 26.3726 20.8402 26.355C21.0802 26.3571 21.3177 26.3058 21.5355 26.205C21.744 26.1083 21.9416 25.9896 22.125 25.851M22.815 26.9062H22.1077V26.4495L21.8482 26.6295C21.7492 26.7027 21.6426 26.765 21.5302 26.8155C21.3984 26.8798 21.2601 26.9301 21.1177 26.9655C20.9383 27.0088 20.754 27.0287 20.5695 27.0247C20.2048 27.0328 19.8518 26.8961 19.5877 26.6445C19.4562 26.5191 19.3523 26.3676 19.2828 26.1997C19.2133 26.0317 19.1798 25.8512 19.1842 25.6695C19.173 25.3921 19.246 25.1179 19.3935 24.8827C19.5436 24.6742 19.7473 24.5102 19.983 24.408C20.2839 24.2811 20.6027 24.2019 20.928 24.1732C21.2932 24.132 21.6885 24.0982 22.107 24.0817V23.97C22.1107 23.8284 22.0804 23.6879 22.0185 23.5605C21.9613 23.4553 21.8755 23.3684 21.771 23.31C21.6576 23.2459 21.5323 23.2058 21.4027 23.1922C21.2563 23.1735 21.1085 23.1665 20.961 23.1712C20.7488 23.1755 20.5375 23.2006 20.3302 23.2462C20.0845 23.3025 19.8431 23.3764 19.608 23.4675H19.578V22.722C19.7197 22.6837 19.92 22.6395 20.1877 22.5952C20.4467 22.5512 20.7088 22.5276 20.9715 22.5247C21.2366 22.5216 21.5014 22.5468 21.7612 22.5997C21.9731 22.6444 22.1736 22.7317 22.3507 22.8562C22.5119 22.9723 22.6382 23.1302 22.716 23.313C22.7987 23.5339 22.834 23.7698 22.8195 24.0052V26.9145" fill="#231F20"/>
<path d="M27.7929 26.9085H27.0736V24.468C27.0737 24.2837 27.0619 24.0995 27.0383 23.9167C27.0259 23.7746 26.9827 23.6369 26.9116 23.5132C26.8473 23.4066 26.7517 23.3222 26.6379 23.2717C26.4881 23.2161 26.3288 23.1906 26.1691 23.1967C25.956 23.2016 25.7463 23.2509 25.5534 23.3415C25.3318 23.4394 25.1239 23.5654 24.9346 23.7165V26.9115H24.2146V22.6252H24.9346V23.103C25.1458 22.9247 25.3808 22.7767 25.6328 22.6635C25.8648 22.5607 26.1157 22.5075 26.3694 22.5075C26.566 22.4939 26.7631 22.5241 26.9467 22.596C27.1302 22.6678 27.2955 22.7795 27.4306 22.923C27.6931 23.2688 27.8218 23.698 27.7929 24.1312V26.9062" fill="#231F20"/>
<path d="M36.4073 26.4922L36.024 26.6662C35.8793 26.7307 35.7293 26.787 35.5793 26.8372C35.413 26.8888 35.2437 26.9301 35.0723 26.961C34.8717 26.9954 34.6684 27.0122 34.4648 27.0112C34.083 27.0153 33.7031 26.9576 33.3398 26.8402C33.0076 26.7261 32.7054 26.5388 32.4556 26.292C32.1923 26.0315 31.9908 25.7152 31.8661 25.3665C31.5948 24.5302 31.5948 23.6295 31.8661 22.7932C31.9905 22.4399 32.1918 22.1187 32.4556 21.8527C32.704 21.5999 33.0062 21.4063 33.3398 21.2865C33.7057 21.1515 34.0936 21.0856 34.4836 21.0922C34.7934 21.09 35.1023 21.1266 35.4031 21.201C35.7557 21.293 36.0969 21.4246 36.42 21.5932V22.4932H36.3608C36.0832 22.2475 35.7676 22.0484 35.4263 21.9037C35.1094 21.7825 34.7726 21.7215 34.4333 21.7237C34.1673 21.7204 33.9032 21.7685 33.6556 21.8655C33.4176 21.9615 33.2049 22.1108 33.0338 22.302C32.8472 22.5123 32.7067 22.7594 32.6213 23.0272C32.5169 23.3549 32.4663 23.6973 32.4713 24.0412C32.4624 24.3922 32.5184 24.7418 32.6363 25.0725C32.7254 25.3346 32.8679 25.5755 33.0548 25.7797C33.2294 25.9659 33.4441 26.1101 33.6826 26.2012C33.9243 26.2936 34.1813 26.3396 34.44 26.337C34.7909 26.3396 35.139 26.2758 35.4661 26.1487C35.7932 26.0175 36.093 25.8265 36.3503 25.5855H36.4066V26.4697" fill="#231F20"/>
<path d="M41.0026 26.9085H40.2834V24.468C40.2835 24.2836 40.2717 24.0995 40.2481 23.9167C40.2357 23.7746 40.1924 23.6369 40.1214 23.5132C40.0572 23.4053 39.9602 23.3207 39.8446 23.2717C39.696 23.2156 39.5376 23.1901 39.3789 23.1967C39.1648 23.2017 38.9541 23.2509 38.7601 23.3415C38.5411 23.4423 38.3345 23.5681 38.1444 23.7165V26.9115H37.4221V20.943H38.1444V23.103C38.3557 22.9264 38.5895 22.7786 38.8396 22.6635C39.0735 22.5602 39.3265 22.5071 39.5821 22.5075C39.7778 22.4946 39.9739 22.5252 40.1563 22.597C40.3387 22.6688 40.503 22.7802 40.6374 22.923C40.9036 23.2671 41.0336 23.6972 41.0026 24.1312V26.9062" fill="#231F20"/>
<path d="M45.2723 24.291C45.2867 23.9699 45.1817 23.6549 44.9775 23.4067C44.8635 23.2997 44.728 23.2181 44.5801 23.1673C44.4322 23.1165 44.2752 23.0976 44.1195 23.112C43.9493 23.1056 43.7797 23.1337 43.6206 23.1945C43.4616 23.2554 43.3165 23.3477 43.194 23.466C42.9699 23.6954 42.8323 23.9954 42.8048 24.315L45.2723 24.291ZM45.9735 24.8422H42.8168C42.811 25.077 42.852 25.3105 42.9375 25.5292C43.0064 25.714 43.1185 25.8796 43.2645 26.0122C43.3982 26.1391 43.5598 26.2329 43.7363 26.286C43.931 26.3513 44.1354 26.3832 44.3408 26.3805C44.6441 26.3781 44.9442 26.318 45.225 26.2035C45.4529 26.1256 45.6662 26.01 45.8558 25.8615H45.897V26.6482C45.6549 26.7486 45.407 26.8343 45.1545 26.9047C44.8937 26.973 44.6253 27.0078 44.3558 27.0082C44.0531 27.0241 43.7503 26.9802 43.4646 26.8791C43.1789 26.7779 42.916 26.6215 42.6908 26.4187C42.4849 26.2009 42.3263 25.9429 42.2248 25.6609C42.1234 25.3789 42.0813 25.079 42.1013 24.78C42.0724 24.1692 42.284 23.5715 42.6908 23.115C42.8824 22.9094 43.1162 22.7477 43.3761 22.6409C43.636 22.5341 43.916 22.4848 44.1968 22.4962C44.44 22.486 44.6827 22.5269 44.9092 22.6163C45.1356 22.7057 45.3408 22.8416 45.5115 23.0152C45.8477 23.4162 46.0157 23.9317 45.9803 24.4537V24.843" fill="#231F20"/>
<path d="M53.3131 26.9085H52.5848V24.468C52.5848 24.291 52.5761 24.1142 52.5586 23.9377C52.5503 23.7962 52.5163 23.6574 52.4581 23.5282C52.3992 23.4212 52.3099 23.3341 52.2016 23.2777C52.0514 23.2152 51.8892 23.187 51.7268 23.1952C51.5164 23.1974 51.3094 23.2488 51.1223 23.3452C50.9078 23.453 50.7044 23.5813 50.5148 23.7285C50.5148 23.7907 50.5298 23.8582 50.5351 23.9347C50.5403 24.0112 50.5351 24.0907 50.5351 24.1672V26.9085H49.8128V24.468C49.8169 24.2889 49.8091 24.1098 49.7896 23.9317C49.7781 23.7902 49.7423 23.6516 49.6838 23.5222C49.6267 23.4157 49.5382 23.3293 49.4303 23.2747C49.281 23.2131 49.1198 23.186 48.9586 23.1952C48.7537 23.1988 48.5523 23.2483 48.3691 23.34C48.1599 23.4439 47.9623 23.5696 47.7796 23.715V26.91H47.0603V22.6267H47.7796V23.1045C47.9857 22.9309 48.2124 22.7833 48.4546 22.665C48.6782 22.562 48.9216 22.5087 49.1678 22.509C49.4269 22.5004 49.6831 22.5649 49.9073 22.695C50.1101 22.8119 50.2701 22.9906 50.3641 23.205C50.6039 22.992 50.8716 22.8126 51.1598 22.6717C51.4025 22.5623 51.6661 22.507 51.9323 22.5097C52.1271 22.494 52.3229 22.5245 52.5037 22.5988C52.6844 22.6731 52.8451 22.7891 52.9726 22.9372C53.2151 23.2885 53.3324 23.7112 53.3056 24.1372V26.9122" fill="#231F20"/>
<path d="M55.4288 26.9115H54.7095V22.629H55.4288V26.9115ZM55.476 21.9015H54.6653V21.1612H55.476V21.9015Z" fill="#231F20"/>
<path d="M60.0241 26.64C59.8035 26.7482 59.5748 26.8389 59.3401 26.9115C59.1155 26.9743 58.8832 27.0051 58.6501 27.003C58.3617 27.0062 58.0747 26.9613 57.8011 26.8702C57.551 26.7843 57.3234 26.6433 57.1351 26.4577C56.9433 26.2595 56.7983 26.021 56.7106 25.7595C56.6033 25.4426 56.5525 25.1092 56.5606 24.7747C56.5446 24.4744 56.5885 24.1738 56.6897 23.8906C56.7909 23.6073 56.9474 23.347 57.1501 23.1247C57.3488 22.9254 57.5871 22.7699 57.8496 22.6684C58.1121 22.5669 58.393 22.5215 58.6741 22.5352C58.9187 22.5348 59.1621 22.5705 59.3963 22.641C59.6212 22.7036 59.8393 22.7885 60.0473 22.8945V23.6932H60.0091C59.8009 23.5322 59.5718 23.4002 59.3281 23.301C59.1063 23.2112 58.869 23.1661 58.6298 23.1682C58.4473 23.1596 58.2652 23.1926 58.0972 23.2646C57.9292 23.3365 57.7798 23.4457 57.6601 23.5837C57.4303 23.9418 57.3082 24.3583 57.3082 24.7837C57.3082 25.2092 57.4303 25.6257 57.6601 25.9837C57.7799 26.123 57.9302 26.2329 58.0992 26.305C58.2683 26.377 58.4516 26.4093 58.6351 26.3992C58.7852 26.3973 58.9345 26.3774 59.0798 26.34C59.22 26.3037 59.3562 26.2535 59.4863 26.19C59.5898 26.1337 59.6866 26.0782 59.7811 26.016C59.8756 25.9537 59.9431 25.9042 59.9993 25.86H60.0376V26.6557" fill="#231F20"/>
<path d="M63.5573 25.8562V24.6772C63.336 24.6772 63.0795 24.7095 62.7795 24.7365C62.5419 24.7504 62.3061 24.7868 62.0753 24.8452C61.888 24.8952 61.7152 24.9891 61.5713 25.119C61.4421 25.2686 61.3737 25.4613 61.3797 25.6589C61.3857 25.8565 61.4656 26.0446 61.6035 26.1862C61.8004 26.3241 62.0388 26.3898 62.2785 26.3722C62.5178 26.3744 62.7546 26.3231 62.9715 26.2222C63.1801 26.1256 63.3777 26.0069 63.561 25.8682M64.2773 26.9235H63.561V26.4517L63.3015 26.6317C63.2029 26.7055 63.0962 26.7679 62.9835 26.8177C62.8529 26.8825 62.7156 26.9328 62.574 26.9677C62.3933 27.0096 62.2082 27.0295 62.0228 27.027C61.6584 27.0334 61.306 26.8969 61.041 26.6467C60.9099 26.5212 60.8065 26.3696 60.7375 26.2016C60.6685 26.0337 60.6355 25.8532 60.6405 25.6717C60.6225 25.3957 60.6904 25.1209 60.8348 24.885C60.9834 24.6751 61.1875 24.5107 61.4243 24.4102C61.7239 24.2846 62.0412 24.2062 62.3648 24.1777C62.727 24.1365 63.1223 24.1027 63.5438 24.0862V23.9745C63.5486 23.8328 63.5182 23.6921 63.4553 23.565C63.3993 23.4599 63.3145 23.373 63.2108 23.3145C63.0967 23.2521 62.9717 23.2121 62.8425 23.1967C62.6936 23.1741 62.5431 23.1633 62.3925 23.1645C62.1793 23.1689 61.9671 23.194 61.7588 23.2395C61.5136 23.293 61.2731 23.3659 61.0395 23.4577H60.9983V22.7265C61.14 22.6882 61.3463 22.644 61.608 22.5997C61.868 22.5555 62.1311 22.532 62.3948 22.5292C62.659 22.5261 62.9227 22.5513 63.1815 22.6042C63.3938 22.6476 63.5946 22.735 63.771 22.8607C63.933 22.9767 64.0603 23.1346 64.1393 23.3175C64.2312 23.5363 64.2745 23.7725 64.266 24.0097V26.919" fill="#231F20"/>
<path d="M66.3931 20.943H65.6709V26.9085H66.3931V20.943Z" fill="#231F20"/>
<path d="M114.627 35.52C114.627 44.9985 109.002 46.7197 107.259 48.8152C106.204 50.2036 104.654 51.1323 102.932 51.4087C100.907 51.7035 100.731 53.2597 98.8073 53.2597C97.8256 53.2597 95.9371 52.1572 96.7209 49.6785C95.8209 49.4047 92.8688 51.096 92.0056 51.096C91.1423 51.096 90.6293 50.427 90.6293 49.2067C87.4433 50.3092 86.8921 47.9482 88.3869 46.887C87.8386 46.3357 87.9151 45.237 89.8869 44.3287C90.3174 43.2675 93.0316 42.714 96.4914 43.2675C97.5863 42.7249 98.8136 42.5071 100.028 42.6397C101.091 42.0009 102.332 41.7239 103.565 41.85C107.187 39.5685 105.14 35.2042 104.827 34.455C104.513 33.7057 104.983 33.5887 105.14 33.9037" fill="white"/>
<path d="M114.627 35.52C114.627 44.9985 109.002 46.7197 107.259 48.8152C106.204 50.2036 104.654 51.1323 102.932 51.4087C100.907 51.7035 100.731 53.2597 98.8073 53.2597C97.8256 53.2597 95.9371 52.1572 96.7209 49.6785C95.8209 49.4047 92.8688 51.096 92.0056 51.096C91.1423 51.096 90.6293 50.427 90.6293 49.2067C87.4433 50.3092 86.8921 47.9482 88.3869 46.887C87.8386 46.3357 87.9151 45.237 89.8869 44.3287C90.3174 43.2675 93.0316 42.714 96.4914 43.2675C97.5863 42.7249 98.8136 42.5071 100.028 42.6397C101.091 42.0009 102.332 41.7239 103.565 41.85C107.187 39.5685 105.14 35.2042 104.827 34.455C104.513 33.7057 104.983 33.5887 105.14 33.9037" stroke="#231F20" stroke-width="0.12" stroke-miterlimit="10"/>
<path d="M108.73 10.3567C106.372 5.40223 102.384 3.28348 100.124 3.28348C97.863 3.28348 98.4788 5.21398 99.4043 6.13948C99.549 5.62648 102.608 3.73423 108.73 10.3507" fill="#00522C"/>
<path d="M102.178 3.02697C107.698 6.00672 108.771 8.22897 110.053 11.052C110.522 12.072 111.527 12.3367 112.007 15.5167C113.586 14.8185 113.642 14.388 113.642 12.2745C113.642 11.3902 115.037 10.8712 114.927 8.65497C114.721 4.50822 110.435 0.0757219 109.236 0.888722C108.417 1.44597 107.4 -0.461278 106.902 0.248972C106.256 1.14897 105.995 -0.190528 103.955 1.82397C103.645 2.11872 102.755 1.26972 102.172 3.02397" fill="#00522C"/>
<path d="M93.0564 18.8827C91.6006 14.9827 92.6258 12.3105 95.1016 10.698C95.1398 9.55723 95.4556 9.04798 96.2806 9.71623C97.3006 8.61373 98.9536 7.11973 98.3641 5.88448C96.4719 1.97323 99.4636 1.71448 101.942 2.42473C102.145 2.13275 102.427 1.90504 102.755 1.76864C103.083 1.63223 103.444 1.59287 103.793 1.65523C104.383 0.947976 105.488 0.155226 106.59 0.434976C107.062 -0.315024 107.651 -0.0397742 108.671 0.830226C108.903 0.636713 109.193 0.525912 109.496 0.515226C110.56 0.515226 115.163 4.13473 115.163 8.57923C115.238 9.67744 114.885 10.7619 114.179 11.6062C113.195 12.591 114.812 14.8717 112.254 15.7312C111.541 17.0902 111.959 19.0912 111.977 20.1225C111.995 21.1537 111.208 21.891 111.447 22.0912C112.057 22.572 113.51 20.8065 117.286 20.6175C119.172 20.52 119.369 21.2482 119.369 21.9585C119.369 22.6687 118.267 23.055 117.48 24.711C120 27.2662 120 28.92 120 29.586C120 30.252 118.506 32.3767 116.894 32.3767C115.281 32.3767 116.144 29.2267 113.315 27.1425C114.207 29.8479 114.67 32.676 114.689 35.5245C114.689 45.003 108.947 46.7242 107.217 48.8197C106.161 50.2069 104.612 51.1353 102.89 51.4132C100.865 51.708 100.686 53.2642 98.7654 53.2642C97.7836 53.2642 95.8951 52.1617 96.6818 49.683C95.7773 49.4092 92.8269 51.1005 91.9666 51.1005C91.1064 51.1005 90.5873 50.436 90.5873 49.2127C87.4013 50.3152 86.8501 47.9542 88.3471 46.893C87.7928 46.3417 87.8723 45.243 89.8411 44.3347C90.2716 43.2735 92.9858 42.72 96.4486 43.2735C97.5433 42.7311 98.7703 42.5132 99.9848 42.6457C101.047 42.0062 102.288 41.729 103.522 41.856C107.141 39.5745 105.097 35.2102 104.78 34.461C104.464 33.7117 104.936 33.5947 105.095 33.9097C106.994 37.7085 106.354 40.4437 104.86 42.1327C105.476 42.3714 105.99 42.8161 106.316 43.3912C103.991 41.7412 101.871 42.1327 100.887 42.681C101.948 42.84 103.362 43.3117 103.64 44.181C102.564 43.5197 101.346 43.1247 100.087 43.0288C98.8283 42.9329 97.5646 43.139 96.4013 43.6297C94.6328 43.3147 90.7013 43.3942 90.3061 44.3797C90.8956 44.259 92.8614 44.1412 93.5311 44.103C94.2008 44.0647 94.3561 44.259 93.8048 44.3002C92.6695 44.3507 91.5391 44.4798 90.4216 44.6865C88.7716 45.0015 87.9466 46.455 88.8466 46.6552C90.4335 46.0368 92.0814 45.5883 93.7628 45.3172C94.5878 45.3172 94.6674 45.591 93.8424 45.591C93.0174 45.591 89.9903 46.6552 88.8848 47.0437C87.7793 47.4322 87.6294 49.0125 89.0409 49.0125C91.0096 49.0125 91.8346 46.4572 96.4388 46.4572C97.0666 46.4572 97.3876 46.8112 96.7509 46.8112C92.8988 46.8112 91.0891 48.6592 91.0891 49.5255C91.0636 49.7583 91.1315 49.9916 91.2779 50.1744C91.4242 50.3572 91.6371 50.4745 91.8699 50.5005H91.9553C92.5448 50.5005 93.9976 49.2037 97.1836 48.8505C98.8336 46.923 102.059 45.9382 103.479 48.261C99.9781 45.5467 97.0658 49.44 96.9953 50.8162C96.9691 51.288 97.7453 52.5847 98.7286 52.5847C100.143 52.5847 100.117 50.952 102.425 50.6602C107.069 50.0707 107.5 46.5352 106.713 44.916C107.108 45.1545 107.538 45.1897 107.659 47.3565C109.032 45.7065 108.01 44.3677 106.984 42.9915C107.638 43.2406 108.196 43.6905 108.579 44.2766C108.961 44.8628 109.148 45.555 109.112 46.254C110.844 44.8123 112.206 42.9786 113.087 40.905C114.897 36.855 113.718 25.2495 110.216 25.1722C109.229 25.149 106.052 24.9892 105.575 25.29C96.9893 30.69 91.4131 26.415 91.8878 21.0075C89.2351 22.8937 85.3186 27.3412 84.3338 28.5585C83.3491 29.7757 82.9516 28.3492 84.1088 27.0847C83.0776 26.2507 81.1029 24.3795 80.5426 22.6815C80.0266 22.8967 78.5236 22.7902 78.2641 21.7177C77.9437 21.7653 77.6163 21.7243 77.3175 21.5991C77.0187 21.4739 76.7599 21.2693 76.5691 21.0075C76.2241 22.2307 74.5441 21.9075 73.0651 19.9522C71.6918 18.1425 71.2966 16.068 72.7201 16.3245C71.9033 14.7772 72.4846 13.5495 74.0963 13.6995C73.4093 11.6745 74.4616 9.61198 77.4473 11.8995C75.8911 8.73148 78.6849 6.96298 81.4674 12.0412C84.0871 10.1047 83.1233 6.96898 87.2056 6.75373C88.3403 6.69448 89.6311 7.27273 89.6311 8.22748C89.6311 9.94573 88.1071 9.53623 86.9784 11.814C86.3274 13.1197 87.0429 14.5402 86.0349 16.497C86.3075 16.7638 86.5113 17.0927 86.6289 17.4556C86.7465 17.8185 86.7743 18.2045 86.7098 18.5805C88.2591 19.6473 90.1513 20.0961 92.0146 19.839C92.1137 19.6099 92.2611 19.4049 92.4467 19.2381C92.6323 19.0712 92.8518 18.9464 93.0901 18.8722M73.2668 19.5262C74.5786 21.2295 75.5168 21.4387 75.9196 21.2062C76.3223 20.9737 76.0996 20.1277 74.7406 18.2587C74.0608 17.7688 73.4441 17.1967 72.9046 16.5555C71.7256 16.317 71.9588 17.811 73.2728 19.503M72.7216 15.0825C72.7216 16.527 74.9468 17.9917 76.0786 17.9917C77.2103 17.9917 77.5523 17.4022 77.4136 16.7625C76.0253 16.3672 74.4661 14.8732 74.2156 13.9305C73.4018 13.9042 72.7216 14.1135 72.7216 15.0825ZM75.5536 11.2807C75.4088 11.2657 75.2625 11.2794 75.123 11.3211C74.9835 11.3627 74.8536 11.4315 74.7408 11.5235C74.628 11.6155 74.5345 11.7288 74.4656 11.8571C74.3967 11.9853 74.3538 12.1259 74.3393 12.2707C74.3246 12.3684 74.3246 12.4678 74.3393 12.5655C74.5486 14.2425 76.1993 15.9487 77.2868 15.9487C78.3743 15.9487 78.4418 15.2385 78.4418 14.7697C78.4418 13.3282 76.9973 11.283 75.5566 11.283M77.9701 9.36748C77.1923 9.83323 77.6281 12.0435 78.4418 13.1722C79.2556 14.301 79.9598 15.4005 81.0353 14.9407C82.1108 14.481 81.2978 12.2407 80.7728 11.454C80.2478 10.6672 78.8866 8.82898 77.9701 9.39073M91.4873 20.6775C88.0568 20.5717 87.0016 19.6462 85.8878 18.7087C85.0861 18.0427 84.7088 17.5297 83.8246 17.571C84.0622 17.471 84.3184 17.423 84.5761 17.4301C84.8337 17.4372 85.0869 17.4993 85.3186 17.6122C85.7078 16.7752 84.9766 16.3215 83.4436 16.245C84.0091 16.1092 85.7634 16.2067 85.8309 13.8345C85.9426 10.0387 89.3086 9.72898 89.3679 8.04898C89.3889 7.49773 87.0511 6.07423 85.0028 8.00473C83.1841 9.71998 84.1778 10.1235 81.8078 12.8115C82.5886 15.4642 81.5723 17.3677 79.0966 14.8747C79.0966 15.9742 78.5896 16.5487 77.9528 16.611C78.3331 17.6692 78.0586 19.086 75.8131 18.6742C76.6973 20.2837 77.2103 20.7375 77.7406 20.7375C78.7778 20.7375 78.1411 18.2385 81.8656 16.9057C79.2128 18.0847 77.7781 21.8632 80.2358 21.5857C80.2148 19.0455 80.7106 18.594 82.6201 17.7045C80.5568 18.6532 78.8596 21.9045 85.0636 26.0542C87.7748 23.661 89.6551 21.8955 91.4386 20.634M103.31 6.07723C101.709 5.48773 99.5596 5.13448 98.9304 6.86698C98.3011 8.59948 97.1619 9.38098 96.5994 10.1415C97.3672 11.152 98.3823 11.9477 99.5468 12.4522C100.136 12.7942 99.5971 13.1857 98.8366 12.765C97.769 12.0869 96.8068 11.2558 95.9806 10.2982C95.1406 9.19873 96.0556 14.2237 97.9726 14.5245C98.8126 14.6542 99.1013 13.8142 99.4463 14.286C99.7913 14.7577 98.3963 15.312 97.7963 15.1702C96.8506 14.958 95.6964 13.803 95.3026 11.259C91.9223 13.5405 93.4576 17.5042 93.8289 18.8925C94.4386 21.1267 95.5974 23.0805 98.7331 22.5592C99.7831 20.7907 102.09 20.4375 103.19 20.4375C107.596 20.4375 109.196 22.9575 110.615 21.699C112.033 20.4405 110.7 18.9877 111.635 15.5332C112.056 13.989 110.851 12.3082 110.273 11.4952C110.899 11.8428 111.42 12.3529 111.78 12.9718C112.14 13.5907 112.326 14.2953 112.319 15.0112C113.813 14.2477 113.052 13.308 113.235 12.3352C113.418 11.3625 114.756 10.4722 114.547 8.48023C114.338 6.48823 113.76 5.20273 113.156 4.91398C113 4.96723 113.156 5.59498 112.92 5.56798C112.685 5.54098 112.764 4.46848 112.292 4.31248C111.821 4.15648 112.184 4.85173 111.821 4.73098C111.585 4.65148 111.794 3.89098 112.292 4.02373C112.72 4.1821 113.133 4.37943 113.525 4.61323C112.475 3.21898 111.191 1.64848 111.27 2.25523C111.296 2.45548 110.975 3.38023 110.589 3.17173C110.348 3.04498 111.137 1.59673 110.091 1.10848C109.399 0.793476 108.464 1.95148 108.202 1.80373C107.939 1.65598 108.833 0.940476 108.308 0.919476C107.783 0.898476 107.651 1.41748 107.465 1.26148C107.279 1.10548 107.883 0.515976 107.285 0.315726C106.969 0.209976 106.969 0.578226 106.695 0.813726C105.72 0.657726 105.148 1.28848 104.202 1.86373C104.792 2.41498 104.544 2.51773 104.414 2.54473C104.285 2.57173 103.913 1.91698 103.418 2.07298C102.923 2.22898 102.968 2.04673 102.605 2.62423C105.988 4.39273 108.95 7.47523 109.737 10.3342C104.358 1.78423 96.7306 1.49248 99.0624 5.06173C100.586 4.85548 102.305 5.08798 103.313 6.08473" fill="#231F20"/>
<path d="M99.7847 22.4992C102.732 22.3492 103.826 24.5625 108.47 24.5625C113.115 24.5625 114.606 23.124 114.78 23.325C114.954 23.526 114.73 23.9325 114.98 24.159C115.231 24.3855 116.454 25.65 116.749 24.8662C117.123 23.8223 117.747 22.8861 118.568 22.14C119.426 21.477 118.418 21.0787 117.66 21.0787C114.554 21.0787 112.706 22.8675 110.292 22.7437C107.283 22.599 106.829 21.105 103.85 21.105C100.87 21.105 99.8859 22.2397 99.7854 22.4932" fill="#745121"/>
<path d="M117.005 31.491C117.733 31.6087 118.72 30.1762 119.201 29.5455C119.682 28.9147 117.937 26.0887 117.106 25.3282C116.996 25.6243 116.778 25.8676 116.496 26.0092C116.145 26.1652 114.504 24.447 114.35 24.3442C114.196 24.2415 113.849 24.3675 112.105 24.9337C116.776 28.3672 116.23 31.3732 117.006 31.5" fill="#745121"/>
<path d="M99.027 23.2065C95.34 23.604 94.077 21.3675 93.5452 20.103C93.2797 19.4692 92.5372 19.4722 92.514 20.1262C92.2927 25.8052 95.514 27.0195 97.989 27.0195C100.464 27.0195 100.792 26.5657 104.629 24.9742C101.953 24.417 101.623 22.932 99.03 23.2057" fill="#745121"/>
<path d="M99.8761 7.90723C100.295 8.00173 99.8529 10.4745 99.0834 10.2652C98.4706 10.0942 99.1629 7.74823 99.8761 7.90723Z" fill="#231F20"/>
<path d="M105.228 10.1565C105.644 10.251 105.202 12.7297 104.432 12.5145C103.82 12.3435 104.512 9.99747 105.228 10.1565Z" fill="#231F20"/>
<path d="M96.3864 16.6192C97.8602 18.3667 101.627 19.1595 105.254 14.9775C105.549 14.6505 105.493 15.0337 105.815 16.3005C105.918 16.725 105.47 17.4382 105.311 17.4112C105.152 17.3842 105.161 15.9907 104.861 16.2735C102.185 18.7905 98.8217 19.8735 96.1224 16.8832C95.9072 16.6477 95.9364 16.2937 96.3879 16.6177" fill="#231F20"/>
<path d="M94.1168 28.158H0.403564V45.8595H94.1168V28.158Z" fill="#00522C"/>
<path d="M94.1168 28.158H0.403564V45.8595H94.1168V28.158Z" stroke="#231F20" stroke-width="0.585" stroke-miterlimit="10"/>
<path d="M13.9764 35.4075C13.6502 35.0495 13.2509 34.7658 12.8055 34.5756C12.3601 34.3854 11.879 34.2931 11.3949 34.305C11.0114 34.2769 10.6262 34.3277 10.2631 34.4543C9.90006 34.5809 9.56681 34.7807 9.28396 35.0411C9.00112 35.3016 8.77469 35.6174 8.61868 35.9688C8.46266 36.3203 8.38037 36.7 8.37689 37.0845C8.37689 38.6407 9.60914 39.8077 11.4391 39.8077C11.9113 39.8064 12.3786 39.7116 12.814 39.529C13.2495 39.3463 13.6445 39.0794 13.9764 38.7435V41.865C13.138 42.1408 12.2649 42.2966 11.3829 42.3277C9.83917 42.3377 8.33882 41.8175 7.13264 40.854C6.55292 40.4109 6.08603 39.8372 5.76998 39.1796C5.45393 38.5219 5.29766 37.7989 5.31389 37.0695C5.31842 36.3755 5.46933 35.6902 5.75675 35.0585C6.04417 34.4268 6.46164 33.8628 6.98189 33.4035C8.17443 32.3612 9.7038 31.7855 11.2876 31.7827C12.2069 31.7881 13.1176 31.9599 13.9756 32.2897V35.4082" fill="white"/>
<path d="M21.7711 36.039V32.3962H24.5461V41.8395H21.7711V37.9665H17.7721V41.8395H14.9971V32.3962H17.7721V36.039H21.7711Z" fill="white"/>
<path d="M28.4237 34.4767V36.0517H31.5504V38.1322H28.4237V39.759H31.7237V41.8395H25.6487V32.3962H31.7237V34.4767H28.4237Z" fill="white"/>
<path d="M34.1235 32.3962H36.8557L39.0217 37.4445L41.3115 32.3962H44.0737L45.6885 41.8395H42.9135L42.1357 36.405H42.1065L39.5452 41.8395H38.4427L35.9932 36.405H35.964L35.0737 41.8395H32.3137L34.1235 32.3962Z" fill="white"/>
<path d="M49.1041 34.4767V36.0517H52.2278V38.1322H49.1041V39.759H52.3988V41.8395H46.3306V32.3962H52.3988V34.4767H49.1041Z" fill="white"/>
<path d="M54.8062 32.3962H57.5385L59.7015 37.4445L61.9942 32.3962H64.7527L66.3652 41.8395H63.5947L62.814 36.405H62.7817L60.2235 41.8395H59.121L56.6715 36.405H56.6422L55.755 41.8395H52.9912L54.8062 32.3962Z" fill="white"/>
<path d="M71.8366 35.3145H71.8103L70.6636 38.3145H72.9683L71.8366 35.3145ZM69.9001 40.1977L69.1636 41.8395H66.2161L70.3186 32.4082H73.3456L77.3656 41.8395H74.4181L73.7228 40.1977H69.9001Z" fill="white"/>
<path d="M77.5247 32.3962H80.2997L85.3809 38.1667H85.4102V32.3962H88.1807V41.8395H85.4102L80.3289 36.051H80.2997V41.8395H77.5247V32.3962Z" fill="white"/>
<path d="M107.312 48.774C106.256 50.1618 104.707 51.0903 102.986 51.3675C100.961 51.6622 100.784 53.2185 98.8606 53.2185C97.8766 53.2185 95.9903 52.116 96.7771 49.6372C95.8726 49.3635 92.9221 51.0547 92.0618 51.0547C91.2016 51.0547 90.6826 50.3857 90.6826 49.1655C87.4966 50.268 86.9453 47.907 88.4401 46.8457C87.8918 46.2945 87.9683 45.1957 89.9401 44.2875C90.3706 43.2232 93.0848 42.6727 96.5446 43.2232C97.6398 42.6819 98.8671 42.4651 100.082 42.5985C101.144 41.9585 102.385 41.6813 103.619 41.8087" fill="white"/>
<path d="M107.312 48.774C106.256 50.1618 104.707 51.0903 102.986 51.3675C100.961 51.6622 100.784 53.2185 98.8606 53.2185C97.8766 53.2185 95.9903 52.116 96.7771 49.6372C95.8726 49.3635 92.9221 51.0547 92.0618 51.0547C91.2016 51.0547 90.6826 50.3857 90.6826 49.1655C87.4966 50.268 86.9453 47.907 88.4401 46.8457C87.8918 46.2945 87.9683 45.1957 89.9401 44.2875C90.3706 43.2232 93.0848 42.6727 96.5446 43.2232C97.6398 42.6819 98.8671 42.4651 100.082 42.5985C101.144 41.9585 102.385 41.6813 103.619 41.8087" stroke="#231F20" stroke-width="0.12" stroke-miterlimit="10"/>
<path d="M104.954 42.087C105.571 42.3251 106.085 42.7714 106.407 43.3485C104.09 41.6925 101.965 42.087 100.981 42.6352C102.042 42.7942 103.456 43.266 103.733 44.1352C102.658 43.474 101.44 43.079 100.181 42.9831C98.9219 42.8872 97.6583 43.0932 96.495 43.584C94.7265 43.269 90.795 43.3515 90.3975 44.334C90.987 44.2162 92.9557 44.0955 93.6225 44.0572C94.2892 44.019 94.4475 44.2162 93.8962 44.2545C92.7619 44.3085 91.6325 44.4395 90.516 44.6467C88.866 44.9617 88.041 46.4152 88.941 46.6125C90.5284 45.9963 92.1762 45.5489 93.8572 45.2775C94.6822 45.2775 94.7617 45.5512 93.9367 45.5512C93.1117 45.5512 90.0817 46.6125 88.9792 47.007C87.8767 47.4015 87.7207 48.9727 89.1352 48.9727C91.104 48.9727 91.932 46.4175 96.5302 46.4175C97.161 46.4175 97.482 46.7715 96.8452 46.7715C92.9932 46.7715 91.1835 48.6195 91.1835 49.4827C91.1715 49.6052 91.1848 49.7289 91.2225 49.846C91.2602 49.9632 91.3216 50.0714 91.4028 50.1639C91.484 50.2564 91.5833 50.3313 91.6945 50.3839C91.8058 50.4365 91.9267 50.4657 92.0497 50.4697C92.6422 50.4697 94.092 49.17 97.278 48.8197C98.928 46.8922 102.153 45.9082 103.573 48.2302C100.072 45.519 97.1602 49.4092 97.0897 50.7885C97.0635 51.2602 97.8397 52.557 98.823 52.557C100.237 52.557 100.208 50.9242 102.519 50.6325C107.161 50.043 107.594 46.5075 106.81 44.8882C107.2 45.1267 107.635 45.165 107.751 47.3287L107.376 48.7845C106.321 50.1728 104.771 51.1016 103.049 51.378C101.024 51.6727 100.848 53.229 98.9242 53.229C97.9425 53.229 96.054 52.1265 96.8407 49.6477C95.9362 49.374 92.9857 51.0652 92.1255 51.0652C91.2652 51.0652 90.7492 50.3962 90.7492 49.176C87.5632 50.2785 87.012 47.9175 88.5067 46.8562C87.9555 46.305 88.035 45.2062 90.0067 44.298C90.4372 43.2337 93.1515 42.6832 96.6112 43.2337C97.7065 42.6924 98.9338 42.4756 100.148 42.609C101.211 41.9694 102.452 41.6923 103.685 41.8192" fill="#231F20"/>
<path d="M5.55616 26.9647H4.79866V24.1672H1.94866V26.964H1.19116V21.2557H1.95166V23.496H4.80166V21.2557H5.55916L5.55616 26.9647Z" fill="#231F20"/>
</g>
</g>
<defs>
<clipPath id="clip0_49_2031">
<rect width="120" height="53.3393" fill="white"/>
</clipPath>
</defs>
</svg>
