<svg width="14" height="14" viewBox="0 0 14 14" fill="none" xmlns="http://www.w3.org/2000/svg">
<path d="M12.2776 4.9C12.6576 5.24 12.9776 5.57 13.2176 5.83C13.3835 6.01375 13.4753 6.25248 13.4753 6.5C13.4753 6.74752 13.3835 6.98625 13.2176 7.17C12.1676 8.3 9.77765 10.5 6.98765 10.5H6.58765" stroke="#231F20" stroke-linecap="round" stroke-linejoin="round"/>
<path d="M3.85764 9.63C2.69927 8.98125 1.65261 8.15067 0.757639 7.17C0.591799 6.98625 0.5 6.74752 0.5 6.5C0.5 6.25248 0.591799 6.01375 0.757639 5.83C1.80764 4.7 4.19764 2.5 6.98764 2.5C8.08741 2.52299 9.16375 2.82216 10.1176 3.37" stroke="#231F20" stroke-linecap="round" stroke-linejoin="round"/>
<path d="M12.4876 1L1.48761 12" stroke="#231F20" stroke-linecap="round" stroke-linejoin="round"/>
<path d="M5.57761 7.91C5.20202 7.53665 4.98984 7.02958 4.98761 6.5C4.98761 5.96957 5.19832 5.46086 5.5734 5.08579C5.94847 4.71071 6.45718 4.5 6.98761 4.5C7.51719 4.50223 8.02426 4.71441 8.39761 5.09" stroke="#231F20" stroke-linecap="round" stroke-linejoin="round"/>
<path d="M8.72761 7.5C8.54959 7.8043 8.2943 8.05614 7.98761 8.23" stroke="#231F20" stroke-linecap="round" stroke-linejoin="round"/>
</svg>
